<svg width="16" height="16" viewBox="0 0 16 16" fill="none" xmlns="http://www.w3.org/2000/svg">
<path d="M14 16H2C0.9 16 0 15.1 0 14V2C0 0.9 0.9 0 2 0H14C15.1 0 16 0.9 16 2V14C16 15.1 15.1 16 14 16Z" fill="#FFE17F"/>
<path d="M12.7 1.6001V13.4001H9.89995V12.6001C9.29995 13.2001 8.39995 13.6001 7.09995 13.6001C4.69995 13.6001 2.69995 11.7001 2.69995 9.2001C2.69995 6.7001 4.69995 4.8001 7.09995 4.8001C8.29995 4.8001 9.29995 5.2001 9.89995 5.8001V1.6001H12.7ZM9.89995 9.2001C9.89995 7.9001 8.99995 7.1001 7.69995 7.1001C6.39995 7.1001 5.49995 7.9001 5.49995 9.2001C5.49995 10.5001 6.39995 11.3001 7.69995 11.3001C8.99995 11.2001 9.89995 10.4001 9.89995 9.2001Z" fill="#444444"/>
</svg>
