<svg width="4" height="7" viewBox="0 0 4 7" fill="none" xmlns="http://www.w3.org/2000/svg">
<g clip-path="url(#clip0_24_677)">
<path d="M3.7999 3.1002L0.799902 0.100195C0.599902 -0.0998047 0.299902 -0.0998047 0.0999023 0.100195C-9.76548e-05 0.300195 -9.76548e-05 0.700195 0.0999023 0.900195L2.6999 3.5002L0.0999023 6.1002C-9.76548e-05 6.3002 -9.76548e-05 6.6002 0.0999023 6.8002C0.199902 6.9002 0.399902 7.0002 0.499902 7.0002C0.599902 7.0002 0.799902 6.9002 0.899902 6.9002L3.8999 3.9002C3.8999 3.8002 3.9999 3.6002 3.9999 3.5002C3.9999 3.4002 3.8999 3.2002 3.7999 3.1002Z" fill="black"/>
</g>
<defs>
<clipPath id="clip0_24_677">
<rect width="4" height="7" fill="white"/>
</clipPath>
</defs>
</svg>
