<svg width="108" height="66" viewBox="0 0 108 66" fill="none" xmlns="http://www.w3.org/2000/svg">
<path d="M98.967 5.07435C99.719 6.51535 100.176 8.15435 100.176 9.89235V30.9944C100.176 35.6104 97.084 39.5214 92.93 40.8944C91.605 44.8814 89.152 48.7484 84.879 51.3264C76.203 56.5574 53.755 56.1633 53.681 56.1633C53.603 56.1633 31.168 56.5583 22.492 51.3264C18.276 48.7813 15.784 44.9794 14.45 41.0474C10.032 39.8384 6.694 35.7963 6.694 30.9944V9.89335C6.694 8.20535 7.121 6.61135 7.833 5.20035C4.17 6.10935 0 7.91835 0 11.4344C0 17.6774 0 37.1213 0 41.4174C0 51.6684 11.839 65.8503 53.657 65.8503C95.477 65.8503 107.314 51.6684 107.314 41.4174C107.314 37.1213 107.314 17.6774 107.314 11.4344C107.313 7.75035 102.738 5.94035 98.967 5.07435Z" fill="#363636"/>
<path d="M20.561 39.4594H86.084C91.648 39.4594 96.158 34.9464 96.158 29.3824V10.9354C96.158 5.37235 91.648 0.860352 86.084 0.860352H20.561C14.997 0.860352 10.486 5.37135 10.486 10.9354V29.3824C10.486 34.9464 14.997 39.4594 20.561 39.4594ZM83.695 10.4684C84.562 10.4684 85.264 11.1714 85.264 12.0384C85.264 12.9044 84.562 13.6074 83.695 13.6074C82.828 13.6074 82.127 12.9044 82.127 12.0384C82.127 11.1704 82.828 10.4684 83.695 10.4684ZM83.695 14.5074C84.562 14.5074 85.264 15.2104 85.264 16.0754C85.264 16.9424 84.562 17.6444 83.695 17.6444C82.828 17.6444 82.127 16.9424 82.127 16.0754C82.127 15.2104 82.828 14.5074 83.695 14.5074ZM83.695 18.5464C84.562 18.5464 85.264 19.2484 85.264 20.1154C85.264 20.9813 84.562 21.6844 83.695 21.6844C82.828 21.6844 82.127 20.9813 82.127 20.1154C82.127 19.2484 82.828 18.5464 83.695 18.5464ZM83.695 22.3734C84.562 22.3734 85.264 23.0774 85.264 23.9424C85.264 24.8094 84.562 25.5104 83.695 25.5104C82.828 25.5104 82.127 24.8094 82.127 23.9424C82.127 23.0764 82.828 22.3734 83.695 22.3734ZM83.695 26.4124C84.562 26.4124 85.264 27.1144 85.264 27.9814C85.264 28.8464 84.562 29.5494 83.695 29.5494C82.828 29.5494 82.127 28.8454 82.127 27.9814C82.127 27.1144 82.828 26.4124 83.695 26.4124ZM79.656 10.4684C80.523 10.4684 81.224 11.1714 81.224 12.0384C81.224 12.9044 80.523 13.6074 79.656 13.6074C78.791 13.6074 78.088 12.9044 78.088 12.0384C78.088 11.1704 78.791 10.4684 79.656 10.4684ZM79.656 26.4124C80.523 26.4124 81.224 27.1144 81.224 27.9814C81.224 28.8464 80.523 29.5494 79.656 29.5494C78.791 29.5494 78.088 28.8454 78.088 27.9814C78.088 27.1144 78.791 26.4124 79.656 26.4124ZM75.619 10.4684C76.484 10.4684 77.187 11.1714 77.187 12.0384C77.187 12.9044 76.484 13.6074 75.619 13.6074C74.752 13.6074 74.05 12.9044 74.05 12.0384C74.05 11.1704 74.752 10.4684 75.619 10.4684ZM75.619 14.5074C76.484 14.5074 77.187 15.2104 77.187 16.0754C77.187 16.9424 76.484 17.6444 75.619 17.6444C74.752 17.6444 74.05 16.9424 74.05 16.0754C74.05 15.2104 74.752 14.5074 75.619 14.5074ZM75.619 18.5464C76.484 18.5464 77.187 19.2484 77.187 20.1154C77.187 20.9813 76.484 21.6844 75.619 21.6844C74.752 21.6844 74.05 20.9813 74.05 20.1154C74.05 19.2484 74.752 18.5464 75.619 18.5464ZM75.619 22.3734C76.484 22.3734 77.187 23.0774 77.187 23.9424C77.187 24.8094 76.484 25.5104 75.619 25.5104C74.752 25.5104 74.05 24.8094 74.05 23.9424C74.05 23.0764 74.752 22.3734 75.619 22.3734ZM75.619 26.4124C76.484 26.4124 77.187 27.1144 77.187 27.9814C77.187 28.8464 76.484 29.5494 75.619 29.5494C74.752 29.5494 74.05 28.8454 74.05 27.9814C74.05 27.1144 74.752 26.4124 75.619 26.4124ZM67.965 10.4684C68.832 10.4684 69.533 11.1714 69.533 12.0384C69.533 12.9044 68.832 13.6074 67.965 13.6074C67.098 13.6074 66.397 12.9044 66.397 12.0384C66.396 11.1704 67.1 10.4684 67.965 10.4684ZM67.965 18.5464C68.832 18.5464 69.533 19.2484 69.533 20.1154C69.533 20.9813 68.832 21.6844 67.965 21.6844C67.098 21.6844 66.397 20.9813 66.397 20.1154C66.396 19.2484 67.1 18.5464 67.965 18.5464ZM67.965 22.4274C68.832 22.4274 69.533 23.1284 69.533 23.9954C69.533 24.8604 68.832 25.5644 67.965 25.5644C67.098 25.5644 66.397 24.8604 66.397 23.9954C66.396 23.1284 67.1 22.4274 67.965 22.4274ZM67.965 26.4124C68.832 26.4124 69.533 27.1144 69.533 27.9814C69.533 28.8464 68.832 29.5494 67.965 29.5494C67.098 29.5494 66.397 28.8454 66.397 27.9814C66.396 27.1144 67.1 26.4124 67.965 26.4124ZM63.926 10.4684C64.793 10.4684 65.496 11.1714 65.496 12.0384C65.496 12.9044 64.793 13.6074 63.926 13.6074C63.061 13.6074 62.357 12.9044 62.357 12.0384C62.356 11.1704 63.061 10.4684 63.926 10.4684ZM63.926 18.5464C64.793 18.5464 65.496 19.2484 65.496 20.1154C65.496 20.9813 64.793 21.6844 63.926 21.6844C63.061 21.6844 62.357 20.9813 62.357 20.1154C62.356 19.2484 63.061 18.5464 63.926 18.5464ZM63.926 26.4124C64.793 26.4124 65.496 27.1144 65.496 27.9814C65.496 28.8464 64.793 29.5494 63.926 29.5494C63.061 29.5494 62.357 28.8454 62.357 27.9814C62.356 27.1144 63.061 26.4124 63.926 26.4124ZM59.888 10.4684C60.753 10.4684 61.457 11.1714 61.457 12.0384C61.457 12.9044 60.753 13.6074 59.888 13.6074C59.021 13.6074 58.32 12.9044 58.32 12.0384C58.319 11.1704 59.021 10.4684 59.888 10.4684ZM59.888 14.5074C60.753 14.5074 61.457 15.2104 61.457 16.0754C61.457 16.9424 60.753 17.6444 59.888 17.6444C59.021 17.6444 58.32 16.9424 58.32 16.0754C58.319 15.2104 59.021 14.5074 59.888 14.5074ZM59.888 18.5464C60.753 18.5464 61.457 19.2484 61.457 20.1154C61.457 20.9813 60.753 21.6844 59.888 21.6844C59.021 21.6844 58.32 20.9813 58.32 20.1154C58.319 19.2484 59.021 18.5464 59.888 18.5464ZM59.888 26.4124C60.753 26.4124 61.457 27.1144 61.457 27.9814C61.457 28.8464 60.753 29.5494 59.888 29.5494C59.021 29.5494 58.32 28.8454 58.32 27.9814C58.319 27.1144 59.021 26.4124 59.888 26.4124ZM51.598 10.4684C52.465 10.4684 53.167 11.1714 53.167 12.0384C53.167 12.9044 52.465 13.6074 51.598 13.6074C50.731 13.6074 50.03 12.9044 50.03 12.0384C50.029 11.1704 50.731 10.4684 51.598 10.4684ZM51.598 14.5074C52.465 14.5074 53.167 15.2104 53.167 16.0754C53.167 16.9424 52.465 17.6444 51.598 17.6444C50.731 17.6444 50.03 16.9424 50.03 16.0754C50.029 15.2104 50.731 14.5074 51.598 14.5074ZM51.598 18.5464C52.465 18.5464 53.167 19.2484 53.167 20.1154C53.167 20.9813 52.465 21.6844 51.598 21.6844C50.731 21.6844 50.03 20.9813 50.03 20.1154C50.029 19.2484 50.731 18.5464 51.598 18.5464ZM51.598 22.4274C52.465 22.4274 53.167 23.1284 53.167 23.9954C53.167 24.8604 52.465 25.5644 51.598 25.5644C50.731 25.5644 50.03 24.8604 50.03 23.9954C50.029 23.1284 50.731 22.4274 51.598 22.4274ZM51.598 26.4124C52.465 26.4124 53.167 27.1144 53.167 27.9814C53.167 28.8464 52.465 29.5494 51.598 29.5494C50.731 29.5494 50.03 28.8454 50.03 27.9814C50.029 27.1144 50.731 26.4124 51.598 26.4124ZM47.559 14.5074C48.426 14.5074 49.127 15.2104 49.127 16.0754C49.127 16.9424 48.426 17.6444 47.559 17.6444C46.692 17.6444 45.99 16.9424 45.99 16.0754C45.99 15.2104 46.691 14.5074 47.559 14.5074ZM39.057 14.2954C39.922 14.2954 40.626 14.9984 40.626 15.8634C40.626 16.7304 39.922 17.4324 39.057 17.4324C38.19 17.4324 37.486 16.7294 37.486 15.8634C37.486 14.9984 38.189 14.2954 39.057 14.2954ZM39.057 18.3334C39.922 18.3334 40.626 19.0364 40.626 19.9034C40.626 20.7694 39.922 21.4734 39.057 21.4734C38.19 21.4734 37.486 20.7694 37.486 19.9034C37.486 19.0364 38.189 18.3334 39.057 18.3334ZM35.018 10.2554C35.883 10.2554 36.586 10.9584 36.586 11.8254C36.586 12.6914 35.882 13.3934 35.018 13.3934C34.151 13.3934 33.449 12.6904 33.449 11.8254C33.449 10.9584 34.15 10.2554 35.018 10.2554ZM35.018 14.2954C35.883 14.2954 36.586 14.9984 36.586 15.8634C36.586 16.7304 35.882 17.4324 35.018 17.4324C34.151 17.4324 33.449 16.7294 33.449 15.8634C33.449 14.9984 34.15 14.2954 35.018 14.2954ZM35.018 18.3334C35.883 18.3334 36.586 19.0364 36.586 19.9034C36.586 20.7694 35.882 21.4734 35.018 21.4734C34.151 21.4734 33.449 20.7694 33.449 19.9034C33.449 19.0364 34.15 18.3334 35.018 18.3334ZM35.018 22.3734C35.883 22.3734 36.586 23.0774 36.586 23.9424C36.586 24.8094 35.882 25.5104 35.018 25.5104C34.151 25.5104 33.449 24.8094 33.449 23.9424C33.449 23.0764 34.15 22.3734 35.018 22.3734ZM30.764 14.2954C31.631 14.2954 32.333 14.9984 32.333 15.8634C32.333 16.7304 31.631 17.4324 30.764 17.4324C29.897 17.4324 29.196 16.7294 29.196 15.8634C29.196 14.9984 29.897 14.2954 30.764 14.2954ZM30.764 18.3334C31.631 18.3334 32.333 19.0364 32.333 19.9034C32.333 20.7694 31.631 21.4734 30.764 21.4734C29.897 21.4734 29.196 20.7694 29.196 19.9034C29.196 19.0364 29.897 18.3334 30.764 18.3334ZM30.764 22.3734C31.631 22.3734 32.333 23.0774 32.333 23.9424C32.333 24.8094 31.631 25.5104 30.764 25.5104C29.897 25.5104 29.196 24.8094 29.196 23.9424C29.196 23.0764 29.897 22.3734 30.764 22.3734ZM30.764 26.4124C31.631 26.4124 32.333 27.1144 32.333 27.9814C32.333 28.8464 31.631 29.5494 30.764 29.5494C29.897 29.5494 29.196 28.8454 29.196 27.9814C29.196 27.1144 29.897 26.4124 30.764 26.4124ZM26.3 10.2554C27.167 10.2554 27.871 10.9584 27.871 11.8254C27.871 12.6914 27.167 13.3934 26.3 13.3934C25.435 13.3934 24.731 12.6904 24.731 11.8254C24.731 10.9584 25.435 10.2554 26.3 10.2554ZM26.3 14.2954C27.167 14.2954 27.871 14.9984 27.871 15.8634C27.871 16.7304 27.167 17.4324 26.3 17.4324C25.435 17.4324 24.731 16.7294 24.731 15.8634C24.731 14.9984 25.435 14.2954 26.3 14.2954ZM26.3 18.3334C27.167 18.3334 27.871 19.0364 27.871 19.9034C27.871 20.7694 27.167 21.4734 26.3 21.4734C25.435 21.4734 24.731 20.7694 24.731 19.9034C24.731 19.0364 25.435 18.3334 26.3 18.3334ZM26.3 22.3734C27.167 22.3734 27.871 23.0774 27.871 23.9424C27.871 24.8094 27.167 25.5104 26.3 25.5104C25.435 25.5104 24.731 24.8094 24.731 23.9424C24.731 23.0764 25.435 22.3734 26.3 22.3734ZM22.263 14.2954C23.128 14.2954 23.832 14.9984 23.832 15.8634C23.832 16.7304 23.128 17.4324 22.263 17.4324C21.396 17.4324 20.694 16.7294 20.694 15.8634C20.694 14.9984 21.396 14.2954 22.263 14.2954ZM22.263 18.3334C23.128 18.3334 23.832 19.0364 23.832 19.9034C23.832 20.7694 23.128 21.4734 22.263 21.4734C21.396 21.4734 20.694 20.7694 20.694 19.9034C20.694 19.0364 21.396 18.3334 22.263 18.3334Z" fill="#363636"/>
</svg>
