<svg width="87" height="117" viewBox="0 0 87 117" fill="none" xmlns="http://www.w3.org/2000/svg">
<path d="M82.8211 4.011H3.33009C1.56909 4.011 0.14209 5.438 0.14209 7.199V53.612C0.14209 55.375 1.56909 56.801 3.33009 56.801H82.8221C84.5841 56.801 86.0111 55.374 86.0111 53.612V7.199C86.0111 5.438 84.5831 4.011 82.8211 4.011ZM8.39209 37.236H8.16609C6.40409 37.236 4.97709 35.807 4.97709 34.047V26.764C4.97709 25.003 6.40409 23.576 8.16609 23.576H8.39209V37.236ZM69.6231 52.408H13.3411V8.402H69.6231V52.408ZM78.4001 34.552C76.1111 34.552 74.2541 32.697 74.2541 30.405C74.2541 28.113 76.1101 26.258 78.4001 26.258C80.6911 26.258 82.5481 28.113 82.5481 30.405C82.5481 32.697 80.6911 34.552 78.4001 34.552Z" fill="#363636"/>
<path d="M54.6541 0H31.4971V2.758H54.6541V0Z" fill="#363636"/>
<path d="M46.6081 64.861V61.888H54.6541V59.13H31.4981V61.888H39.5431V97.134C37.4041 98.072 35.9081 100.206 35.9081 102.693V117H50.2431V102.693C50.2431 100.207 48.7481 98.072 46.6071 97.136V69.146H51.4031L56.4541 70.359V63.648L51.4031 64.861H46.6081Z" fill="#363636"/>
</svg>
